<svg width="58" height="58" viewBox="0 0 58 58" fill="none" xmlns="http://www.w3.org/2000/svg">
<rect x="0.605713" y="0.652588" width="56.4684" height="56.4684" rx="11.7642" fill="#F5169C"/>
<path d="M24.5815 25.1848C25.4003 26.8902 26.5165 28.4885 27.93 29.9021C29.3436 31.3156 30.942 32.4318 32.6473 33.2506C32.794 33.321 32.8674 33.3562 32.9602 33.3833C33.29 33.4794 33.695 33.4104 33.9743 33.2104C34.0529 33.1541 34.1201 33.0869 34.2546 32.9524C34.6659 32.5411 34.8715 32.3355 35.0783 32.201C35.8582 31.694 36.8635 31.694 37.6434 32.201C37.8501 32.3355 38.0558 32.5411 38.4671 32.9524L38.6963 33.1816C39.3215 33.8068 39.6341 34.1194 39.8039 34.4552C40.1416 35.1229 40.1416 35.9114 39.8039 36.5791C39.6341 36.9148 39.3215 37.2274 38.6963 37.8526L38.5109 38.038C37.8878 38.6611 37.5763 38.9726 37.1527 39.2106C36.6827 39.4746 35.9528 39.6644 35.4137 39.6628C34.9279 39.6614 34.5959 39.5671 33.9319 39.3786C30.3633 38.3658 26.996 36.4547 24.1867 33.6454C21.3774 30.8362 19.4663 27.4688 18.4535 23.9002C18.265 23.2362 18.1708 22.9042 18.1693 22.4184C18.1677 21.8793 18.3575 21.1494 18.6216 20.6794C18.8595 20.2558 19.171 19.9443 19.7941 19.3212L19.9795 19.1358C20.6047 18.5106 20.9173 18.198 21.2531 18.0282C21.9208 17.6905 22.7093 17.6905 23.377 18.0282C23.7127 18.198 24.0253 18.5106 24.6505 19.1358L24.8797 19.3651C25.291 19.7763 25.4967 19.982 25.6311 20.1888C26.1381 20.9686 26.1381 21.974 25.6311 22.7538C25.4967 22.9606 25.291 23.1662 24.8797 23.5775C24.7453 23.712 24.678 23.7792 24.6217 23.8578C24.4217 24.1372 24.3527 24.5421 24.4488 24.872C24.4759 24.9648 24.5111 25.0381 24.5815 25.1848Z" stroke="white" stroke-width="2.35285" stroke-linecap="round" stroke-linejoin="round"/>
</svg>
