<svg width="57" height="58" viewBox="0 0 57 58" fill="none" xmlns="http://www.w3.org/2000/svg">
<rect x="0.234131" y="0.652588" width="56.4684" height="56.4684" rx="11.7642" fill="#F5169C"/>
<path d="M24.9386 31.2395C24.9386 31.2395 26.4827 33.0041 29.0561 33.0041C31.6295 33.0041 33.1736 31.2395 33.1736 31.2395M32.2913 25.3574H32.303M25.821 25.3574H25.8327M29.0561 38.298C34.5787 38.298 39.0557 33.8211 39.0557 28.2984C39.0557 22.7758 34.5787 18.2988 29.0561 18.2988C23.5335 18.2988 19.0565 22.7758 19.0565 28.2984C19.0565 29.416 19.2399 30.4908 19.5781 31.4943C19.7054 31.872 19.769 32.0608 19.7805 32.2058C19.7919 32.3491 19.7833 32.4495 19.7478 32.5888C19.712 32.7298 19.6327 32.8765 19.4743 33.1698L17.55 36.7315C17.2756 37.2395 17.1383 37.4935 17.169 37.6896C17.1958 37.8603 17.2963 38.0107 17.4438 38.1007C17.6132 38.204 17.9004 38.1743 18.4748 38.115L24.4993 37.4922C24.6818 37.4733 24.773 37.4639 24.8561 37.4671C24.9379 37.4702 24.9956 37.4779 25.0754 37.4963C25.1565 37.515 25.2584 37.5543 25.4623 37.6328C26.5776 38.0625 27.7894 38.298 29.0561 38.298ZM32.8795 25.3574C32.8795 25.6822 32.6161 25.9456 32.2913 25.9456C31.9664 25.9456 31.7031 25.6822 31.7031 25.3574C31.7031 25.0325 31.9664 24.7692 32.2913 24.7692C32.6161 24.7692 32.8795 25.0325 32.8795 25.3574ZM26.4092 25.3574C26.4092 25.6822 26.1458 25.9456 25.821 25.9456C25.4961 25.9456 25.2327 25.6822 25.2327 25.3574C25.2327 25.0325 25.4961 24.7692 25.821 24.7692C26.1458 24.7692 26.4092 25.0325 26.4092 25.3574Z" stroke="white" stroke-width="2.35285" stroke-linecap="round" stroke-linejoin="round"/>
</svg>
