<svg width="58" height="58" viewBox="0 0 58 58" fill="none" xmlns="http://www.w3.org/2000/svg">
<rect x="0.691406" y="0.652588" width="56.4684" height="56.4684" rx="11.7642" fill="#F5169C"/>
<path d="M21.9781 27.9795C21.905 27.5083 21.867 27.0255 21.867 26.534C21.867 21.3362 26.1084 17.1226 31.3403 17.1226C36.5723 17.1226 40.8136 21.3362 40.8136 26.534C40.8136 27.7081 40.5972 28.832 40.2018 29.8685C40.1197 30.0838 40.0786 30.1914 40.06 30.2755C40.0415 30.3587 40.0344 30.4173 40.0324 30.5026C40.0304 30.5886 40.042 30.6834 40.0654 30.873L40.539 34.7201C40.5903 35.1366 40.6159 35.3448 40.5466 35.4962C40.4859 35.6288 40.3781 35.7342 40.2441 35.7918C40.0912 35.8576 39.8836 35.8272 39.4684 35.7663L35.7212 35.217C35.5255 35.1884 35.4277 35.174 35.3386 35.1745C35.2504 35.175 35.1895 35.1815 35.1032 35.1997C35.016 35.218 34.9046 35.2597 34.6818 35.3432C33.6427 35.7324 32.5165 35.9453 31.3403 35.9453C30.8484 35.9453 30.3652 35.9081 29.8934 35.8363M23.7865 40.651C27.2745 40.651 30.102 37.7542 30.102 34.1807C30.102 30.6072 27.2745 27.7104 23.7865 27.7104C20.2985 27.7104 17.471 30.6072 17.471 34.1807C17.471 34.899 17.5852 35.59 17.7961 36.2356C17.8853 36.5085 17.9298 36.645 17.9445 36.7382C17.9597 36.8355 17.9624 36.8902 17.9567 36.9885C17.9513 37.0827 17.9277 37.1892 17.8806 37.4021L17.1614 40.651L20.6845 40.1699C20.8768 40.1436 20.973 40.1305 21.057 40.1311C21.1454 40.1317 21.1923 40.1364 21.279 40.1537C21.3613 40.1701 21.4837 40.2133 21.7286 40.2998C22.3736 40.5274 23.066 40.651 23.7865 40.651Z" stroke="white" stroke-width="2.35285" stroke-linecap="round" stroke-linejoin="round"/>
</svg>
