<svg width="21" height="20" viewBox="0 0 21 20" fill="none" xmlns="http://www.w3.org/2000/svg">
<g clip-path="url(#clip0_1_6631)">
<path d="M18.5 10C18.5 5.58175 14.9183 2 10.5 2C6.08175 2 2.5 5.58175 2.5 10C2.5 13.993 5.4255 17.3027 9.25 17.9028V12.3125H7.21875V10H9.25V8.2375C9.25 6.2325 10.4444 5.125 12.2718 5.125C13.147 5.125 14.0625 5.28125 14.0625 5.28125V7.25H13.0538C12.0599 7.25 11.75 7.86669 11.75 8.49937V10H13.9688L13.6141 12.3125H11.75V17.9028C15.5745 17.3027 18.5 13.9931 18.5 10Z" fill="#1877F2"/>
<path d="M13.6141 12.3125L13.9688 10H11.75V8.49937C11.75 7.86662 12.0599 7.25 13.0538 7.25H14.0625V5.28125C14.0625 5.28125 13.147 5.125 12.2717 5.125C10.4444 5.125 9.25 6.2325 9.25 8.2375V10H7.21875V12.3125H9.25V17.9028C9.66351 17.9676 10.0814 18.0001 10.5 18C10.9186 18.0001 11.3365 17.9676 11.75 17.9028V12.3125H13.6141Z" fill="white"/>
</g>
<defs>
<clipPath id="clip0_1_6631">
<rect width="16" height="16" fill="white" transform="translate(2.5 2)"/>
</clipPath>
</defs>
</svg>
