<svg width="162" height="60" viewBox="0 0 162 60" fill="none" xmlns="http://www.w3.org/2000/svg">
<path d="M23.8459 0C10.6962 0 0 10.6983 0 23.8459C0 40.8369 21.6178 58.1817 22.5381 58.9103C22.9035 59.1995 23.3542 59.3596 23.8202 59.3657C24.2861 59.3718 24.7409 59.2235 25.1137 58.944C26.0361 58.2512 47.6939 41.7488 47.6939 23.8459C47.6918 10.6983 36.9956 0 23.8459 0ZM23.8501 39.7312C14.9208 39.7312 7.65731 32.4678 7.65731 23.5405C7.65731 14.6133 14.9208 7.34984 23.8501 7.34984C32.7752 7.34984 40.0366 14.6133 40.0366 23.5405C40.0366 32.4699 32.7752 39.7312 23.8501 39.7312ZM23.2183 33.7861C22.7024 33.5102 10.692 26.7627 13.7078 18.6084C13.8173 18.3704 15.163 15.7758 17.9829 15.1883C19.8319 14.805 21.8052 15.3673 23.8628 16.8562C25.9182 15.3673 27.8809 14.8029 29.7321 15.1883C32.5604 15.7758 33.9019 18.3704 33.9525 18.4799C37.0335 26.7627 25.0126 33.4913 24.5072 33.7861C23.9512 34.1104 23.2183 33.7861 23.2183 33.7861Z" fill="#F5169C"/>
<path d="M69.1364 43.0294C68.5262 43.0294 68.0068 42.8315 67.578 42.4357C67.1658 42.04 66.9596 41.4875 66.9596 40.7784C66.9596 40.4981 67.0009 40.1848 67.0833 39.8385C67.1658 39.5087 67.2894 39.1624 67.4543 38.7996C68.081 37.4803 68.8808 36.3095 69.8537 35.2871C70.8267 34.2482 71.9398 33.3495 73.1931 32.5909C73.1931 32.2941 73.1848 31.9065 73.1683 31.4283C73.1518 30.9501 73.1271 30.4389 73.0941 29.8947C73.0776 29.3505 73.0529 28.8475 73.0199 28.3858C72.7396 29.0289 72.4345 29.6721 72.1047 30.3152C71.7749 30.9418 71.4945 31.4283 71.2637 31.7746C70.7195 32.5991 70.0928 33.3165 69.3837 33.9266C68.6746 34.5368 67.9408 35.015 67.1823 35.3613C66.4237 35.6911 65.6899 35.856 64.9808 35.856C64.0903 35.856 63.3482 35.6251 62.7545 35.1634C62.1774 34.7017 61.7486 34.075 61.4683 33.2835C61.1879 32.4755 61.0478 31.585 61.0478 30.612C61.0478 29.7875 61.1467 28.9465 61.3446 28.089C60.5201 27.9241 59.8357 27.6355 59.2915 27.2232C58.7309 26.811 58.4505 26.2255 58.4505 25.467C58.4505 25.0877 58.5495 24.7496 58.7473 24.4528C58.9452 24.156 59.1843 23.9086 59.4647 23.7107C59.745 23.5128 60.0006 23.3727 60.2315 23.2902C60.2645 23.2737 60.3057 23.2655 60.3552 23.2655C60.4706 23.2655 60.5283 23.3067 60.5283 23.3892C60.5283 23.4716 60.4624 23.5541 60.3304 23.6365C60.1161 23.752 59.9182 23.9663 59.7368 24.2797C59.5389 24.593 59.4399 24.8898 59.4399 25.1701C59.4399 25.7143 59.6461 26.1596 60.0583 26.5059C60.4871 26.8357 60.9818 27.0913 61.5425 27.2727C61.9053 25.9699 62.4577 24.7084 63.1998 23.4881C63.9584 22.2678 64.8983 21.2124 66.0197 20.3219C67.141 19.4149 68.4273 18.8048 69.8785 18.4915C70.1918 18.4255 70.5133 18.376 70.8432 18.3431C71.173 18.2936 71.4945 18.2689 71.8079 18.2689C72.3355 18.2689 72.8303 18.3431 73.292 18.4915C73.7537 18.6399 74.1248 18.8955 74.4051 19.2583C74.7019 19.6046 74.8504 20.1076 74.8504 20.7672C74.8504 21.6577 74.603 22.4904 74.1083 23.2655C73.6136 24.0241 72.9787 24.7084 72.2036 25.3186C71.4451 25.9122 70.637 26.4152 69.7795 26.8274C68.9385 27.2232 68.1634 27.5118 67.4543 27.6932C66.7782 27.8581 66.0856 27.99 65.3765 28.089C64.6674 28.1714 63.9996 28.2209 63.3729 28.2374C63.0926 29.3917 62.9524 30.4389 62.9524 31.3788C62.9524 32.4507 63.1421 33.3412 63.5214 34.0503C63.9171 34.7594 64.5273 35.1139 65.3518 35.1139C65.9125 35.1139 66.5144 34.9408 67.1575 34.5945C67.8171 34.2482 68.4768 33.77 69.1364 33.1598C69.796 32.5332 70.4062 31.8076 70.9668 30.9831C71.3791 30.3729 71.7419 29.7298 72.0552 29.0537C72.385 28.3611 72.6489 27.6437 72.8468 26.9017C72.9127 26.1101 73.0859 25.5329 73.3662 25.1701C73.663 24.8074 73.9764 24.5765 74.3062 24.4775C74.6525 24.3621 74.9328 24.3044 75.1472 24.3044H75.3945C75.6419 24.3044 75.7656 24.3539 75.7656 24.4528C75.7656 24.4858 75.7326 24.5353 75.6666 24.6012C75.4687 24.7661 75.3121 25.0712 75.1967 25.5164C75.0812 25.9452 74.9988 26.4564 74.9493 27.0501C74.8998 27.6272 74.8586 28.2209 74.8256 28.831C74.8091 29.4247 74.8009 29.9689 74.8009 30.4636C74.8009 30.9583 74.7926 31.3376 74.7761 31.6015C75.2214 31.3376 75.6172 31.148 75.9635 31.0325C76.3098 30.9006 76.5736 30.8346 76.755 30.8346C76.8375 30.8346 76.8952 30.8429 76.9282 30.8594C77.0436 30.8759 77.1013 30.9583 77.1013 31.1067C77.1013 31.2057 77.0601 31.2552 76.9776 31.2552H76.8787C76.7138 31.2552 76.4582 31.3459 76.1119 31.5272C75.7656 31.6922 75.444 31.89 75.1472 32.1209C74.8668 32.3518 74.7267 32.5497 74.7267 32.7146V32.9867C74.7267 34.7841 74.5453 36.3177 74.1825 37.5875C73.8197 38.8738 73.3497 39.9127 72.7725 40.7042C72.2119 41.5123 71.61 42.0977 70.9668 42.4605C70.3237 42.8398 69.7136 43.0294 69.1364 43.0294ZM63.5461 27.5943H63.7687C64.9066 27.5943 66.0939 27.4293 67.3307 27.0995C67.9078 26.9511 68.551 26.679 69.2601 26.2833C69.9856 25.8875 70.6782 25.4093 71.3379 24.8486C72.014 24.2714 72.5664 23.653 72.9952 22.9934C73.4404 22.3173 73.663 21.6329 73.663 20.9403C73.663 20.2972 73.4651 19.8272 73.0694 19.5304C72.6901 19.2336 72.2036 19.0851 71.61 19.0851C71.3956 19.0851 71.1647 19.1099 70.9174 19.1593C70.6865 19.1923 70.4391 19.25 70.1753 19.3325C69.1199 19.6458 68.1552 20.2312 67.2812 21.0887C66.4072 21.9462 65.6569 22.9439 65.0302 24.0818C64.4036 25.2196 63.9089 26.3904 63.5461 27.5943ZM69.4332 42.3863C69.8455 42.3863 70.2742 42.1966 70.7195 41.8173C71.1812 41.4545 71.5852 40.8691 71.9315 40.0611C72.3933 38.9892 72.6901 37.8761 72.822 36.7218C72.9704 35.5839 73.0694 34.4296 73.1188 33.2588C72.921 33.3742 72.6159 33.6051 72.2036 33.9514C71.7914 34.2812 71.3379 34.6934 70.8432 35.1881C70.3484 35.6664 69.8785 36.1858 69.4332 36.7465C69.0045 37.3072 68.6746 37.8761 68.4438 38.4533C68.1305 39.1953 67.9738 39.8715 67.9738 40.4816C67.9738 41.0918 68.114 41.5617 68.3943 41.8915C68.6746 42.2214 69.0209 42.3863 69.4332 42.3863ZM84.6287 35.8065C84.1175 35.8065 83.7053 35.6499 83.3919 35.3366C83.0786 35.0067 82.8313 34.5945 82.6499 34.0998C82.485 33.5886 82.3695 33.0774 82.3036 32.5662C82.2376 32.0385 82.2046 31.5767 82.2046 31.1809C82.0067 31.923 81.7511 32.6486 81.4378 33.3577C81.141 34.0668 80.8112 34.6522 80.4484 35.1139C80.0856 35.5592 79.6898 35.7818 79.2611 35.7818H79.2363C78.8405 35.7818 78.5107 35.6004 78.2469 35.2376C77.983 34.8583 77.7852 34.3636 77.6532 33.7535C77.5213 33.1433 77.4553 32.4837 77.4553 31.7746V31.5272C77.4553 30.8676 77.5131 30.142 77.6285 29.3505C77.7439 28.5425 77.9501 27.7757 78.2469 27.0501C78.5437 26.3245 78.9477 25.7308 79.4589 25.2691C79.9866 24.7909 80.6545 24.5518 81.4625 24.5518C81.7759 24.5518 82.0562 24.626 82.3036 24.7744C82.5674 24.9063 82.757 25.1042 82.8725 25.368C82.9879 25.2361 83.1446 25.1289 83.3425 25.0465C83.5403 24.964 83.7795 24.9228 84.0598 24.9228C84.1587 24.9228 84.2659 24.931 84.3814 24.9475C84.5133 24.964 84.6452 24.9887 84.7771 25.0217C84.6782 25.401 84.5628 25.9205 84.4308 26.5801C84.2989 27.2397 84.1835 27.9653 84.0845 28.7568C84.0021 29.5319 83.9609 30.2905 83.9609 31.0325V31.1315C83.9609 31.4448 83.9773 31.8158 84.0103 32.2446C84.0433 32.6733 84.101 33.0938 84.1835 33.5061C84.2659 33.9184 84.3814 34.2647 84.5298 34.545C84.6782 34.8254 84.8678 34.9655 85.0987 34.9655H85.1234C85.2554 34.9655 85.3955 34.8996 85.5439 34.7676C85.7089 34.6357 85.882 34.3884 86.0634 34.0256C86.3108 33.5473 86.5416 32.9289 86.756 32.1704C86.789 32.022 86.8549 31.9478 86.9539 31.9478C87.0363 31.9478 87.0776 32.0467 87.0776 32.2446V32.3435C87.0446 32.7723 86.9292 33.2588 86.7313 33.8029C86.5334 34.3471 86.253 34.8171 85.8902 35.2129C85.5439 35.6087 85.1234 35.8065 84.6287 35.8065ZM80.1021 33.7535C80.3659 33.7535 80.605 33.5638 80.8194 33.1845C81.0503 32.8053 81.2564 32.3435 81.4378 31.7993C81.6192 31.2552 81.7759 30.7275 81.9078 30.2162C82.1057 29.4577 82.2376 28.6909 82.3036 27.9158C82.3695 27.1243 82.5097 26.3492 82.7241 25.5907C82.5262 25.3763 82.3036 25.2691 82.0562 25.2691C81.6934 25.2691 81.3224 25.4505 80.9431 25.8133C80.5638 26.1761 80.267 26.5883 80.0526 27.0501C79.7888 27.6272 79.5909 28.3033 79.4589 29.0784C79.3435 29.8535 79.2858 30.5955 79.2858 31.3046C79.2858 31.486 79.2858 31.6674 79.2858 31.8488C79.3023 32.0302 79.3188 32.2034 79.3353 32.3683C79.3682 32.863 79.4589 33.2175 79.6074 33.4319C79.7723 33.6463 79.9372 33.7535 80.1021 33.7535ZM89.0099 35.856C88.6965 35.856 88.3915 35.7736 88.0946 35.6087C87.7978 35.4273 87.5422 35.1552 87.3278 34.7924C87.064 34.3306 86.8991 33.7947 86.8331 33.1845C86.7671 32.5744 86.7342 32.022 86.7342 31.5272V30.9336C86.7507 30.7357 86.7671 30.3647 86.7836 29.8205C86.8001 29.2763 86.8249 28.6414 86.8578 27.9158C86.8908 27.1737 86.9403 26.4234 87.0063 25.6649H86.2394C86.1075 25.6649 86.0416 25.5824 86.0416 25.4175C86.0416 25.3351 86.0745 25.2526 86.1405 25.1701C86.19 25.0712 86.2559 25.0217 86.3384 25.0217H87.0557C87.1217 24.2467 87.1959 23.5458 87.2784 22.9192C87.3608 22.2925 87.4597 21.8473 87.5752 21.5835C87.6576 21.4021 87.8061 21.2454 88.0204 21.1135C88.2348 20.9651 88.5234 20.8909 88.8862 20.8909C88.9851 20.8909 89.0923 20.8991 89.2077 20.9156C89.3397 20.9321 89.4633 20.9568 89.5788 20.9898C89.4963 21.2701 89.4056 21.7813 89.3067 22.5234C89.2077 23.249 89.1088 24.0818 89.0099 25.0217H90.7661C90.898 25.0217 90.964 25.1124 90.964 25.2938C90.964 25.3763 90.9393 25.4587 90.8898 25.5412C90.8403 25.6236 90.7743 25.6649 90.6919 25.6649H88.9604C88.8779 26.5718 88.8037 27.5118 88.7378 28.4847C88.6883 29.4412 88.6553 30.3234 88.6388 31.1315V31.552C88.6388 31.8323 88.6471 32.1456 88.6636 32.4919C88.68 32.8218 88.7048 33.1433 88.7378 33.4566C88.8202 34.0503 88.9357 34.4708 89.0841 34.7182C89.2325 34.9655 89.4056 35.0892 89.6035 35.0892C89.8839 35.0892 90.1477 34.9078 90.3951 34.545C90.6424 34.1657 90.8733 33.704 91.0877 33.1598C91.302 32.5991 91.4834 32.0467 91.6319 31.5025C91.7968 30.9583 91.9204 30.5048 92.0029 30.142C92.0853 29.7628 92.1266 29.5731 92.1266 29.5731C92.1101 28.9959 92.0853 28.427 92.0524 27.8663C92.0194 27.2892 91.9864 26.7203 91.9534 26.1596C91.9369 25.8792 91.9122 25.5 91.8792 25.0217C91.8627 24.527 91.8545 23.9911 91.8545 23.4139C91.8545 22.7048 91.8875 21.971 91.9534 21.2124C92.0194 20.4539 92.1431 19.7448 92.3245 19.0851C92.5059 18.4255 92.7615 17.8978 93.0913 17.502C93.4376 17.0898 93.8828 16.8837 94.427 16.8837C95.0536 16.8837 95.4824 17.131 95.7133 17.6257C95.9441 18.104 96.0596 18.6894 96.0596 19.382C96.0596 20.0911 95.9771 20.8496 95.8122 21.6577C95.6638 22.4492 95.4906 23.1665 95.2928 23.8097C95.1114 24.4528 94.9712 24.9145 94.8722 25.1949C94.6579 25.805 94.4105 26.4234 94.1302 27.0501C93.8663 27.6767 93.5942 28.2704 93.3139 28.831L93.3881 30.6862C93.5695 29.9277 93.8004 29.1938 94.0807 28.4847C94.3775 27.7592 94.7486 27.0666 95.1938 26.4069C95.4412 26.0277 95.7462 25.6566 96.109 25.2938C96.4883 24.9145 96.9253 24.7249 97.42 24.7249C97.9147 24.7249 98.2446 24.8898 98.4095 25.2196C98.5744 25.5494 98.6568 25.9122 98.6568 26.308C98.6568 26.7203 98.6156 27.0913 98.5331 27.4211C98.5167 27.553 98.4672 27.8086 98.3847 28.1879C98.3023 28.5672 98.2116 29.0207 98.1126 29.5484C98.0302 30.0761 97.956 30.6285 97.89 31.2057C97.824 31.7664 97.7911 32.2941 97.7911 32.7888C97.7911 33.234 97.8323 33.638 97.9147 34.0008C98.0632 34.578 98.3188 34.8666 98.6816 34.8666C98.7805 34.8666 98.9124 34.8254 99.0773 34.7429C99.2917 34.611 99.4731 34.4378 99.6215 34.2234C99.7699 34.0091 99.8936 33.7947 99.9926 33.5803C100.075 33.4319 100.149 33.2752 100.215 33.1103C100.281 32.9289 100.347 32.7311 100.413 32.5167C100.479 32.3353 100.57 32.2446 100.685 32.2446C100.768 32.2446 100.809 32.327 100.809 32.4919V32.5909C100.776 32.8712 100.685 33.201 100.537 33.5803C100.306 34.1575 99.9843 34.6769 99.572 35.1387C99.1598 35.5839 98.6156 35.8065 97.9395 35.8065H97.89C97.4448 35.8065 97.0737 35.6664 96.7769 35.386C96.4801 35.0892 96.2904 34.7099 96.208 34.2482C96.175 34.0668 96.1503 33.8689 96.1338 33.6545C96.1173 33.4401 96.109 33.2175 96.109 32.9867C96.109 32.459 96.1338 31.9148 96.1832 31.3541C96.2492 30.7769 96.3234 30.2327 96.4059 29.7215C96.4883 29.2103 96.5543 28.7898 96.6038 28.46C96.6532 28.1632 96.678 27.8581 96.678 27.5448C96.678 27.2644 96.645 27.0171 96.579 26.8027C96.5295 26.5883 96.4224 26.4811 96.2574 26.4811C96.175 26.4811 96.0678 26.5306 95.9359 26.6296C95.804 26.7285 95.6473 26.8934 95.4659 27.1243C95.1526 27.5365 94.8228 28.1467 94.4765 28.9547C94.1467 29.7463 93.8911 30.6285 93.7097 31.6015C93.6932 31.7499 93.6684 31.989 93.6355 32.3188C93.6025 32.6486 93.5695 33.0031 93.5365 33.3824C93.5035 33.7617 93.4705 34.0998 93.4376 34.3966C93.4046 34.6934 93.3634 34.8831 93.3139 34.9655C93.149 35.2788 92.9346 35.4932 92.6708 35.6087C92.4234 35.7241 92.1925 35.7818 91.9782 35.7818C92.0111 35.6499 92.0359 35.4108 92.0524 35.0645C92.0689 34.7182 92.0853 34.3059 92.1018 33.8277C92.1183 33.4979 92.1266 33.1763 92.1266 32.863C92.1431 32.5497 92.1513 32.2363 92.1513 31.923C92.1018 32.0714 92.0524 32.2281 92.0029 32.393C91.9534 32.5414 91.9039 32.6816 91.8545 32.8135C91.6566 33.2752 91.4505 33.7452 91.2361 34.2234C91.0382 34.6852 90.7661 35.0727 90.4198 35.386C90.09 35.6994 89.62 35.856 89.0099 35.856ZM93.2892 27.7921C93.6519 26.9841 93.9818 26.1348 94.2786 25.2444C94.5754 24.3374 94.8145 23.4386 94.9959 22.5482C95.1773 21.6577 95.268 20.8414 95.268 20.0993V19.8519C95.2515 19.3737 95.1938 18.978 95.0949 18.6646C95.0124 18.3513 94.8722 18.1947 94.6744 18.1947C94.427 18.1947 94.2044 18.5492 94.0065 19.2583C93.8086 19.9509 93.6519 20.7837 93.5365 21.7566C93.4376 22.6141 93.3716 23.4716 93.3386 24.3291C93.3056 25.1701 93.2892 26.0029 93.2892 26.8274V27.7921ZM103.473 35.856C102.714 35.856 102.104 35.6746 101.642 35.3118C101.197 34.949 100.867 34.4791 100.653 33.9019C100.455 33.3082 100.331 32.6816 100.282 32.022C100.265 31.89 100.257 31.7499 100.257 31.6015C100.257 31.453 100.257 31.3129 100.257 31.1809C100.257 30.4059 100.339 29.6308 100.504 28.8558C100.669 28.0807 100.925 27.3799 101.271 26.7532C101.634 26.1101 102.087 25.5989 102.632 25.2196C103.192 24.8238 103.86 24.626 104.635 24.626C105.113 24.626 105.46 24.7991 105.674 25.1454C105.905 25.4917 106.02 25.8545 106.02 26.2338C106.02 27.1078 105.831 27.8746 105.451 28.5342C105.089 29.1938 104.61 29.738 104.017 30.1668C103.44 30.5955 102.829 30.9006 102.186 31.082C102.203 31.5767 102.261 32.1209 102.359 32.7146C102.475 33.2917 102.681 33.7947 102.978 34.2234C103.275 34.6357 103.703 34.8418 104.264 34.8418C104.792 34.8418 105.237 34.6852 105.6 34.3719C105.963 34.0421 106.259 33.6215 106.49 33.1103C106.721 32.5826 106.894 32.022 107.01 31.4283C107.142 30.8346 107.241 30.2657 107.307 29.7215C107.373 29.1609 107.422 28.6991 107.455 28.3363C107.488 27.99 107.513 27.652 107.529 27.3222C107.546 26.9759 107.554 26.646 107.554 26.3327C107.554 26.1348 107.554 25.937 107.554 25.7391C107.554 25.5412 107.537 25.3598 107.505 25.1949C107.158 24.931 106.894 24.6095 106.713 24.2302C106.548 23.8344 106.466 23.4634 106.466 23.1171C106.466 22.8038 106.532 22.5399 106.663 22.3255C106.812 22.1112 107.026 22.004 107.307 22.004C107.488 22.004 107.669 22.1359 107.851 22.3997C108.032 22.6636 108.156 23.0676 108.222 23.6118C108.255 23.7767 108.271 23.9581 108.271 24.156C108.271 24.3539 108.271 24.5682 108.271 24.7991V25.3433C108.453 25.4587 108.659 25.5494 108.89 25.6154C109.137 25.6814 109.36 25.7143 109.558 25.7143C109.722 25.7143 109.879 25.6896 110.028 25.6401C110.176 25.5907 110.3 25.5082 110.399 25.3928C110.531 25.2114 110.662 25.0382 110.794 24.8733C110.943 24.6919 111.231 24.593 111.66 24.5765H111.833C111.949 24.5765 112.072 24.5847 112.204 24.6012C112.336 24.6177 112.485 24.6424 112.65 24.6754C112.452 25.0877 112.287 25.6154 112.155 26.2585C112.023 26.9017 111.907 27.5943 111.809 28.3363C111.726 29.0619 111.66 29.7628 111.611 30.4389C111.578 31.0985 111.561 31.6674 111.561 32.1456V32.3683C111.561 33.0609 111.644 33.671 111.809 34.1987C111.973 34.7099 112.262 34.9655 112.674 34.9655C112.938 34.9655 113.169 34.8583 113.367 34.644C113.565 34.4296 113.738 34.1657 113.886 33.8524C114.035 33.5226 114.158 33.2093 114.257 32.9125C114.356 32.5991 114.431 32.3518 114.48 32.1704C114.513 32.022 114.579 31.9478 114.678 31.9478C114.76 31.9478 114.802 32.0385 114.802 32.2198V32.3435C114.686 33.4814 114.365 34.3471 113.837 34.9408C113.326 35.518 112.707 35.8065 111.982 35.8065C111.619 35.8065 111.314 35.7323 111.066 35.5839C110.836 35.4355 110.629 35.2294 110.448 34.9655C110.184 34.5698 110.003 34.0256 109.904 33.333C109.805 32.6404 109.755 31.8983 109.755 31.1067C109.755 30.2162 109.805 29.3423 109.904 28.4847C110.003 27.6272 110.11 26.9181 110.225 26.3575C110.159 26.374 110.094 26.3904 110.028 26.4069C109.962 26.4069 109.896 26.4069 109.83 26.4069C109.549 26.4069 109.269 26.3575 108.989 26.2585C108.725 26.1596 108.477 26.0277 108.247 25.8627C108.23 26.275 108.197 26.7038 108.148 27.149C108.098 27.5778 108.049 28.0065 107.999 28.4353C107.933 28.9795 107.843 29.6061 107.727 30.3152C107.628 31.0078 107.472 31.7004 107.257 32.393C107.059 33.0856 106.779 33.7122 106.416 34.2729C106.07 34.8336 105.616 35.2541 105.056 35.5344C104.61 35.7488 104.083 35.856 103.473 35.856ZM102.186 30.5131C102.698 30.3482 103.135 30.0678 103.497 29.6721C103.877 29.2763 104.165 28.8146 104.363 28.2869C104.577 27.7427 104.685 27.1985 104.685 26.6543C104.685 26.341 104.635 26.0441 104.536 25.7638C104.437 25.467 104.248 25.3186 103.967 25.3186C103.67 25.3186 103.415 25.467 103.2 25.7638C103.003 26.0441 102.838 26.4069 102.706 26.8522C102.574 27.2809 102.475 27.7344 102.409 28.2126C102.343 28.6909 102.293 29.1279 102.261 29.5236C102.228 29.9029 102.211 30.1833 102.211 30.3647C102.195 30.3976 102.186 30.4471 102.186 30.5131ZM123.222 43.0294C122.612 43.0294 122.092 42.8315 121.663 42.4357C121.251 42.04 121.045 41.4875 121.045 40.7784C121.045 40.4981 121.086 40.1848 121.169 39.8385C121.251 39.5087 121.375 39.1624 121.54 38.7996C122.166 37.4803 122.966 36.3095 123.939 35.2871C124.912 34.2482 126.025 33.3495 127.278 32.5909C127.278 32.2941 127.27 31.9065 127.254 31.4283C127.237 30.9501 127.212 30.4389 127.18 29.8947C127.163 29.3505 127.138 28.8475 127.105 28.3858C126.825 29.0289 126.52 29.6721 126.19 30.3152C125.86 30.9418 125.58 31.4283 125.349 31.7746C124.805 32.5991 124.178 33.3165 123.469 33.9266C122.76 34.5368 122.026 35.015 121.268 35.3613C120.509 35.6911 119.775 35.856 119.066 35.856C118.176 35.856 117.434 35.6251 116.84 35.1634C116.263 34.7017 115.834 34.075 115.554 33.2835C115.273 32.4755 115.133 31.585 115.133 30.612C115.133 29.7875 115.232 28.9465 115.43 28.089C114.605 27.9241 113.921 27.6355 113.377 27.2232C112.816 26.811 112.536 26.2255 112.536 25.467C112.536 25.0877 112.635 24.7496 112.833 24.4528C113.031 24.156 113.27 23.9086 113.55 23.7107C113.83 23.5128 114.086 23.3727 114.317 23.2902C114.35 23.2737 114.391 23.2655 114.441 23.2655C114.556 23.2655 114.614 23.3067 114.614 23.3892C114.614 23.4716 114.548 23.5541 114.416 23.6365C114.201 23.752 114.004 23.9663 113.822 24.2797C113.624 24.593 113.525 24.8898 113.525 25.1701C113.525 25.7143 113.731 26.1596 114.144 26.5059C114.573 26.8357 115.067 27.0913 115.628 27.2727C115.991 25.9699 116.543 24.7084 117.285 23.4881C118.044 22.2678 118.984 21.2124 120.105 20.3219C121.226 19.4149 122.513 18.8048 123.964 18.4915C124.277 18.4255 124.599 18.376 124.929 18.3431C125.258 18.2936 125.58 18.2689 125.893 18.2689C126.421 18.2689 126.916 18.3431 127.377 18.4915C127.839 18.6399 128.21 18.8955 128.491 19.2583C128.787 19.6046 128.936 20.1076 128.936 20.7672C128.936 21.6577 128.688 22.4904 128.194 23.2655C127.699 24.0241 127.064 24.7084 126.289 25.3186C125.53 25.9122 124.722 26.4152 123.865 26.8274C123.024 27.2232 122.249 27.5118 121.54 27.6932C120.864 27.8581 120.171 27.99 119.462 28.089C118.753 28.1714 118.085 28.2209 117.458 28.2374C117.178 29.3917 117.038 30.4389 117.038 31.3788C117.038 32.4507 117.227 33.3412 117.607 34.0503C118.003 34.7594 118.613 35.1139 119.437 35.1139C119.998 35.1139 120.6 34.9408 121.243 34.5945C121.903 34.2482 122.562 33.77 123.222 33.1598C123.881 32.5332 124.492 31.8076 125.052 30.9831C125.464 30.3729 125.827 29.7298 126.141 29.0537C126.47 28.3611 126.734 27.6437 126.932 26.9017C126.998 26.1101 127.171 25.5329 127.452 25.1701C127.748 24.8074 128.062 24.5765 128.392 24.4775C128.738 24.3621 129.018 24.3044 129.233 24.3044H129.48C129.727 24.3044 129.851 24.3539 129.851 24.4528C129.851 24.4858 129.818 24.5353 129.752 24.6012C129.554 24.7661 129.397 25.0712 129.282 25.5164C129.167 25.9452 129.084 26.4564 129.035 27.0501C128.985 27.6272 128.944 28.2209 128.911 28.831C128.895 29.4247 128.886 29.9689 128.886 30.4636C128.886 30.9583 128.878 31.3376 128.862 31.6015C129.307 31.3376 129.703 31.148 130.049 31.0325C130.395 30.9006 130.659 30.8346 130.84 30.8346C130.923 30.8346 130.981 30.8429 131.014 30.8594C131.129 30.8759 131.187 30.9583 131.187 31.1067C131.187 31.2057 131.145 31.2552 131.063 31.2552H130.964C130.799 31.2552 130.544 31.3459 130.197 31.5272C129.851 31.6922 129.529 31.89 129.233 32.1209C128.952 32.3518 128.812 32.5497 128.812 32.7146V32.9867C128.812 34.7841 128.631 36.3177 128.268 37.5875C127.905 38.8738 127.435 39.9127 126.858 40.7042C126.297 41.5123 125.695 42.0977 125.052 42.4605C124.409 42.8398 123.799 43.0294 123.222 43.0294ZM117.631 27.5943H117.854C118.992 27.5943 120.179 27.4293 121.416 27.0995C121.993 26.9511 122.636 26.679 123.345 26.2833C124.071 25.8875 124.764 25.4093 125.423 24.8486C126.099 24.2714 126.652 23.653 127.081 22.9934C127.526 22.3173 127.748 21.6329 127.748 20.9403C127.748 20.2972 127.551 19.8272 127.155 19.5304C126.775 19.2336 126.289 19.0851 125.695 19.0851C125.481 19.0851 125.25 19.1099 125.003 19.1593C124.772 19.1923 124.525 19.25 124.261 19.3325C123.205 19.6458 122.241 20.2312 121.367 21.0887C120.493 21.9462 119.742 22.9439 119.116 24.0818C118.489 25.2196 117.994 26.3904 117.631 27.5943ZM123.519 42.3863C123.931 42.3863 124.36 42.1966 124.805 41.8173C125.267 41.4545 125.671 40.8691 126.017 40.0611C126.479 38.9892 126.775 37.8761 126.907 36.7218C127.056 35.5839 127.155 34.4296 127.204 33.2588C127.006 33.3742 126.701 33.6051 126.289 33.9514C125.877 34.2812 125.423 34.6934 124.929 35.1881C124.434 35.6664 123.964 36.1858 123.519 36.7465C123.09 37.3072 122.76 37.8761 122.529 38.4533C122.216 39.1953 122.059 39.8715 122.059 40.4816C122.059 41.0918 122.199 41.5617 122.48 41.8915C122.76 42.2214 123.106 42.3863 123.519 42.3863ZM136.29 35.8065C135.746 35.8065 135.317 35.6334 135.004 35.2871C134.69 34.9243 134.468 34.4626 134.336 33.9019C134.22 33.3247 134.163 32.7063 134.163 32.0467C134.163 31.3376 134.204 30.645 134.286 29.9689C134.385 29.2763 134.484 28.6661 134.583 28.1384C134.699 27.6107 134.781 27.248 134.831 27.0501C134.369 27.0171 134.006 26.9429 133.742 26.8274C133.478 26.712 133.256 26.5718 133.074 26.4069C133.008 27.1985 132.901 28.0477 132.753 28.9547C132.621 29.8617 132.464 30.7357 132.283 31.5767C132.101 32.4012 131.904 33.1103 131.689 33.704C131.623 33.9184 131.516 34.0256 131.368 34.0256C131.252 34.0256 131.194 33.9514 131.194 33.8029C131.194 33.77 131.194 33.7287 131.194 33.6793C131.211 33.6298 131.227 33.5803 131.244 33.5308C131.508 32.7723 131.73 31.9478 131.912 31.0573C132.093 30.1503 132.233 29.2763 132.332 28.4353C132.431 27.5943 132.481 26.8934 132.481 26.3327V26.0606C132.068 25.8792 131.763 25.6154 131.565 25.2691C131.384 24.9228 131.293 24.593 131.293 24.2797C131.293 24.0488 131.335 23.8427 131.417 23.6613C131.516 23.4799 131.656 23.3892 131.838 23.3892H131.887C132.118 23.3892 132.324 23.5541 132.505 23.8839C132.687 24.1972 132.835 24.5518 132.951 24.9475C133.066 25.3268 133.124 25.6319 133.124 25.8627C133.322 26.0112 133.536 26.1184 133.767 26.1843C134.014 26.2503 134.22 26.2833 134.385 26.2833C134.6 26.2833 134.74 26.2503 134.806 26.1843C134.938 26.0524 135.094 25.8627 135.276 25.6154C135.474 25.368 135.779 25.2444 136.191 25.2444C136.471 25.2444 136.809 25.3268 137.205 25.4917C137.007 25.904 136.826 26.374 136.661 26.9017C136.496 27.4129 136.356 27.957 136.241 28.5342C136.224 28.6661 136.183 28.93 136.117 29.3258C136.051 29.7215 135.993 30.175 135.944 30.6862C135.894 31.1974 135.87 31.7086 135.87 32.2198C135.87 32.9454 135.944 33.5886 136.092 34.1492C136.257 34.6934 136.554 34.9655 136.983 34.9655C137.246 34.9655 137.477 34.8583 137.675 34.644C137.873 34.4296 138.046 34.1657 138.195 33.8524C138.343 33.5226 138.467 33.2093 138.566 32.9125C138.665 32.5991 138.739 32.3518 138.788 32.1704C138.821 32.022 138.887 31.9478 138.986 31.9478C139.069 31.9478 139.11 32.0385 139.11 32.2198V32.3435C139.11 33.1021 138.97 33.7452 138.689 34.2729C138.426 34.7841 138.079 35.1717 137.65 35.4355C137.222 35.6829 136.768 35.8065 136.29 35.8065ZM145.816 35.8065C145.305 35.8065 144.893 35.6499 144.579 35.3366C144.266 35.0067 144.019 34.5945 143.837 34.0998C143.672 33.5886 143.557 33.0774 143.491 32.5662C143.425 32.0385 143.392 31.5767 143.392 31.1809C143.194 31.923 142.938 32.6486 142.625 33.3577C142.328 34.0668 141.998 34.6522 141.636 35.1139C141.273 35.5592 140.877 35.7818 140.448 35.7818H140.424C140.028 35.7818 139.698 35.6004 139.434 35.2376C139.17 34.8583 138.972 34.3636 138.841 33.7535C138.709 33.1433 138.643 32.4837 138.643 31.7746V31.5272C138.643 30.8676 138.7 30.142 138.816 29.3505C138.931 28.5425 139.137 27.7757 139.434 27.0501C139.731 26.3245 140.135 25.7308 140.646 25.2691C141.174 24.7909 141.842 24.5518 142.65 24.5518C142.963 24.5518 143.243 24.626 143.491 24.7744C143.755 24.9063 143.944 25.1042 144.06 25.368C144.175 25.2361 144.332 25.1289 144.53 25.0465C144.728 24.964 144.967 24.9228 145.247 24.9228C145.346 24.9228 145.453 24.931 145.569 24.9475C145.701 24.964 145.833 24.9887 145.964 25.0217C145.865 25.401 145.75 25.9205 145.618 26.5801C145.486 27.2397 145.371 27.9653 145.272 28.7568C145.189 29.5319 145.148 30.2905 145.148 31.0325V31.1315C145.148 31.4448 145.165 31.8158 145.198 32.2446C145.231 32.6733 145.288 33.0938 145.371 33.5061C145.453 33.9184 145.569 34.2647 145.717 34.545C145.865 34.8254 146.055 34.9655 146.286 34.9655H146.311C146.443 34.9655 146.583 34.8996 146.731 34.7676C146.896 34.6357 147.069 34.3884 147.251 34.0256C147.498 33.5473 147.729 32.9289 147.943 32.1704C147.976 32.022 148.042 31.9478 148.141 31.9478C148.224 31.9478 148.265 32.0467 148.265 32.2446V32.3435C148.232 32.7723 148.116 33.2588 147.919 33.8029C147.721 34.3471 147.44 34.8171 147.078 35.2129C146.731 35.6087 146.311 35.8065 145.816 35.8065ZM141.289 33.7535C141.553 33.7535 141.792 33.5638 142.007 33.1845C142.238 32.8053 142.444 32.3435 142.625 31.7993C142.806 31.2552 142.963 30.7275 143.095 30.2162C143.293 29.4577 143.425 28.6909 143.491 27.9158C143.557 27.1243 143.697 26.3492 143.911 25.5907C143.713 25.3763 143.491 25.2691 143.243 25.2691C142.881 25.2691 142.51 25.4505 142.13 25.8133C141.751 26.1761 141.454 26.5883 141.24 27.0501C140.976 27.6272 140.778 28.3033 140.646 29.0784C140.531 29.8535 140.473 30.5955 140.473 31.3046C140.473 31.486 140.473 31.6674 140.473 31.8488C140.49 32.0302 140.506 32.2034 140.523 32.3683C140.556 32.863 140.646 33.2175 140.795 33.4319C140.96 33.6463 141.124 33.7535 141.289 33.7535ZM148.515 35.8807C148.07 35.8807 147.847 35.5839 147.847 34.9903C147.847 34.8913 147.847 34.7841 147.847 34.6687C147.864 34.5533 147.88 34.4296 147.897 34.2977C147.946 34.0173 147.987 33.6215 148.02 33.1103C148.053 32.5826 148.078 31.9972 148.095 31.3541C148.128 30.6945 148.144 30.0431 148.144 29.4C148.144 28.6744 148.119 27.9983 148.07 27.3716C148.037 26.7285 147.963 26.2255 147.847 25.8627C148.012 25.8298 148.194 25.7391 148.391 25.5907C148.589 25.4422 148.804 25.3433 149.035 25.2938C149.084 25.2773 149.15 25.2691 149.232 25.2691C149.513 25.2691 149.686 25.4175 149.752 25.7143C149.834 26.0112 149.876 26.374 149.876 26.8027C149.876 27.0995 149.867 27.4541 149.851 27.8663C149.851 28.2621 149.834 28.6084 149.801 28.9053C149.983 28.3776 150.181 27.9241 150.395 27.5448C150.609 27.149 150.84 26.7697 151.088 26.4069C151.434 25.8792 151.788 25.467 152.151 25.1701C152.531 24.8733 152.885 24.7249 153.215 24.7249C153.611 24.7249 153.866 24.8486 153.982 25.0959C154.114 25.3268 154.18 25.6154 154.18 25.9617C154.18 26.1926 154.163 26.4399 154.13 26.7038C154.114 26.9511 154.097 27.1985 154.081 27.4458L153.932 29.6473L154.18 28.9053C154.361 28.3776 154.559 27.9241 154.773 27.5448C154.988 27.149 155.219 26.7697 155.466 26.4069C155.812 25.8792 156.167 25.467 156.53 25.1701C156.909 24.8733 157.263 24.7249 157.593 24.7249C158.055 24.7249 158.352 24.8816 158.484 25.1949C158.616 25.4917 158.682 25.8627 158.682 26.308C158.682 26.4894 158.673 26.679 158.657 26.8769C158.657 27.0583 158.649 27.248 158.632 27.4458C158.616 27.6767 158.583 28.1467 158.533 28.8558C158.484 29.5484 158.442 30.2987 158.409 31.1067C158.409 31.1727 158.401 31.3046 158.385 31.5025C158.385 31.7004 158.385 31.923 158.385 32.1704C158.385 32.5497 158.401 32.9537 158.434 33.3824C158.484 33.7947 158.566 34.1492 158.682 34.4461C158.813 34.7429 158.995 34.8913 159.226 34.8913C159.539 34.8913 159.803 34.7429 160.017 34.4461C160.232 34.1328 160.405 33.7864 160.537 33.4072C160.685 33.0279 160.784 32.7311 160.834 32.5167C160.899 32.3188 160.982 32.2198 161.081 32.2198C161.18 32.2198 161.229 32.3188 161.229 32.5167V32.5662C161.229 32.6816 161.205 32.83 161.155 33.0114C161.122 33.1928 161.073 33.3742 161.007 33.5556C160.809 34.1657 160.528 34.7017 160.166 35.1634C159.803 35.6087 159.275 35.8313 158.583 35.8313C158.022 35.8313 157.601 35.6581 157.321 35.3118C157.057 34.949 156.876 34.5203 156.777 34.0256C156.694 33.5308 156.653 33.0609 156.653 32.6156V32.1704C156.686 31.4448 156.711 30.8182 156.727 30.2905C156.744 29.7463 156.76 29.1938 156.777 28.6332C156.777 28.5507 156.777 28.4518 156.777 28.3363C156.793 28.2209 156.802 28.089 156.802 27.9406C156.802 27.6272 156.777 27.3222 156.727 27.0253C156.678 26.7285 156.562 26.5801 156.381 26.5801C156.249 26.5801 156.035 26.7615 155.738 27.1243C155.474 27.4871 155.202 27.99 154.922 28.6332C154.658 29.2763 154.435 30.0101 154.254 30.8346C154.072 31.6592 153.982 32.5167 153.982 33.4072C153.982 33.7205 153.99 34.0338 154.006 34.3471C154.039 34.644 154.089 34.949 154.155 35.2624C154.122 35.2788 154.056 35.3036 153.957 35.3366C153.875 35.3695 153.767 35.386 153.635 35.386C153.454 35.386 153.264 35.3283 153.066 35.2129C152.869 35.0974 152.704 34.8583 152.572 34.4955C152.456 34.1657 152.374 33.8194 152.324 33.4566C152.291 33.0774 152.275 32.6898 152.275 32.2941C152.275 31.7169 152.3 31.1315 152.349 30.5378C152.399 29.9442 152.44 29.3587 152.473 28.7816V28.4105C152.473 28.1962 152.465 27.957 152.448 27.6932C152.432 27.4129 152.382 27.1737 152.3 26.9759C152.234 26.7615 152.127 26.6543 151.978 26.6543C151.797 26.6543 151.591 26.811 151.36 27.1243C151.079 27.4871 150.791 28.023 150.494 28.7321C150.197 29.4247 149.95 30.2162 149.752 31.1067C149.554 31.9807 149.455 32.8877 149.455 33.8277C149.455 34.3884 149.505 34.9573 149.603 35.5344C149.422 35.6334 149.232 35.7158 149.035 35.7818C148.853 35.8478 148.68 35.8807 148.515 35.8807Z" fill="#F5169C"/>
</svg>
