<svg width="219" height="40" viewBox="0 0 219 40" fill="none" xmlns="http://www.w3.org/2000/svg">
<path d="M60.1626 16.0746C59.9567 15.4283 59.6797 14.8494 59.3317 14.3381C58.9908 13.8196 58.5824 13.3793 58.1065 13.017C57.6307 12.6477 57.0874 12.3672 56.4766 12.1754C55.8729 11.9837 55.2088 11.8878 54.4844 11.8878C53.2557 11.8878 52.1477 12.2038 51.1605 12.8359C50.1733 13.468 49.392 14.3949 48.8168 15.6165C48.2486 16.831 47.9645 18.3189 47.9645 20.0803C47.9645 21.8487 48.2521 23.3437 48.8274 24.5653C49.4027 25.7869 50.1911 26.7138 51.1925 27.3459C52.1939 27.978 53.3338 28.294 54.6122 28.294C55.7983 28.294 56.8317 28.0526 57.7124 27.5696C58.6001 27.0866 59.2855 26.4048 59.7685 25.5241C60.2585 24.6364 60.5036 23.5923 60.5036 22.392L61.3558 22.5518H55.1129V19.8352H63.6889V22.3175C63.6889 24.1499 63.2983 25.7408 62.517 27.0902C61.7429 28.4325 60.6705 29.4695 59.2997 30.201C57.9361 30.9325 56.3736 31.2983 54.6122 31.2983C52.6378 31.2983 50.9048 30.8438 49.4134 29.9347C47.929 29.0256 46.7713 27.7365 45.9403 26.0675C45.1094 24.3913 44.6939 22.4027 44.6939 20.1016C44.6939 18.3615 44.9354 16.799 45.4183 15.4141C45.9013 14.0291 46.5795 12.8537 47.4531 11.8878C48.3338 10.9148 49.3672 10.1726 50.5533 9.66122C51.7464 9.14276 53.0497 8.88352 54.4631 8.88352C55.642 8.88352 56.7393 9.05753 57.755 9.40554C58.7777 9.75355 59.6868 10.2472 60.4822 10.8864C61.2848 11.5256 61.9489 12.2855 62.4744 13.1662C63 14.0398 63.3551 15.0092 63.5398 16.0746H60.1626ZM72.3741 31.3622C71.3372 31.3622 70.3997 31.1705 69.5616 30.7869C68.7235 30.3963 68.0595 29.8317 67.5694 29.093C67.0865 28.3544 66.845 27.4489 66.845 26.3764C66.845 25.4531 67.0225 24.6932 67.3777 24.0966C67.7328 23.5 68.2122 23.0277 68.8159 22.6797C69.4196 22.3317 70.0943 22.0689 70.84 21.8913C71.5858 21.7138 72.3457 21.5788 73.1199 21.4865C74.1 21.3729 74.8954 21.2805 75.5062 21.2095C76.117 21.1314 76.5609 21.0071 76.8379 20.8366C77.1149 20.6662 77.2534 20.3892 77.2534 20.0057V19.9311C77.2534 19.0007 76.9906 18.2798 76.465 17.7685C75.9466 17.2571 75.1724 17.0014 74.1426 17.0014C73.0701 17.0014 72.225 17.2393 71.6071 17.7152C70.9963 18.1839 70.5737 18.706 70.3393 19.2812L67.3457 18.5994C67.7008 17.6051 68.2193 16.8026 68.9011 16.1918C69.59 15.5739 70.3819 15.1264 71.2768 14.8494C72.1717 14.5653 73.1127 14.4233 74.1 14.4233C74.7534 14.4233 75.4458 14.5014 76.1774 14.6577C76.916 14.8068 77.6049 15.0838 78.2441 15.4886C78.8904 15.8935 79.4196 16.4723 79.8315 17.2251C80.2434 17.9709 80.4494 18.9403 80.4494 20.1335V31H77.3386V28.7628H77.2108C77.0048 29.1747 76.6958 29.5795 76.2839 29.9773C75.872 30.375 75.3429 30.7053 74.6966 30.968C74.0502 31.2308 73.2761 31.3622 72.3741 31.3622ZM73.0666 28.8054C73.9473 28.8054 74.7001 28.6314 75.3251 28.2834C75.9572 27.9354 76.4366 27.4808 76.7633 26.9197C77.0971 26.3516 77.264 25.7443 77.264 25.098V22.9886C77.1504 23.1023 76.9302 23.2088 76.6035 23.3082C76.2839 23.4006 75.9181 23.4822 75.5062 23.5533C75.0943 23.6172 74.693 23.6776 74.3024 23.7344C73.9118 23.7841 73.585 23.8267 73.3223 23.8622C72.7044 23.9403 72.1397 24.0717 71.6284 24.2564C71.1241 24.4411 70.7193 24.7074 70.4139 25.0554C70.1156 25.3963 69.9664 25.8509 69.9664 26.419C69.9664 27.2074 70.2576 27.804 70.84 28.2088C71.4224 28.6065 72.1646 28.8054 73.0666 28.8054ZM92.3306 14.6364V17.1932H83.3924V14.6364H92.3306ZM85.7894 10.7159H88.9748V26.1953C88.9748 26.8132 89.0671 27.2784 89.2518 27.5909C89.4364 27.8963 89.6744 28.1058 89.9656 28.2195C90.2638 28.326 90.587 28.3793 90.935 28.3793C91.1907 28.3793 91.4144 28.3615 91.6062 28.326C91.7979 28.2905 91.9471 28.2621 92.0536 28.2408L92.6289 30.8722C92.4442 30.9432 92.1815 31.0142 91.8406 31.0852C91.4996 31.1634 91.0735 31.206 90.5621 31.2131C89.7241 31.2273 88.9428 31.0781 88.2184 30.7656C87.494 30.4531 86.908 29.9702 86.4606 29.3168C86.0131 28.6634 85.7894 27.843 85.7894 26.8558V10.7159ZM99.3912 21.2841V31H96.2058V9.18182H99.3485V17.2997H99.551C99.9345 16.419 100.52 15.7195 101.309 15.201C102.097 14.6825 103.127 14.4233 104.398 14.4233C105.52 14.4233 106.501 14.6541 107.339 15.1158C108.184 15.5774 108.837 16.2663 109.299 17.1825C109.768 18.0916 110.002 19.228 110.002 20.5916V31H106.817V20.9751C106.817 19.7749 106.508 18.8445 105.89 18.1839C105.272 17.5163 104.412 17.1825 103.312 17.1825C102.559 17.1825 101.884 17.3423 101.287 17.6619C100.698 17.9815 100.233 18.4503 99.8919 19.0682C99.5581 19.679 99.3912 20.4176 99.3912 21.2841ZM121.305 31.3303C119.693 31.3303 118.305 30.9858 117.14 30.2969C115.982 29.6009 115.087 28.6243 114.455 27.3672C113.83 26.103 113.518 24.6222 113.518 22.9247C113.518 21.2486 113.83 19.7713 114.455 18.4929C115.087 17.2145 115.968 16.2166 117.097 15.4993C118.233 14.782 119.562 14.4233 121.081 14.4233C122.005 14.4233 122.9 14.576 123.766 14.8814C124.633 15.1868 125.41 15.6662 126.099 16.3196C126.788 16.973 127.331 17.8217 127.729 18.8658C128.127 19.9027 128.326 21.1634 128.326 22.6477V23.777H115.318V21.3906H125.204C125.204 20.5526 125.034 19.8104 124.693 19.1641C124.352 18.5107 123.873 17.9957 123.255 17.6193C122.644 17.2429 121.927 17.0547 121.103 17.0547C120.208 17.0547 119.427 17.2749 118.759 17.7152C118.099 18.1484 117.587 18.7166 117.225 19.4197C116.87 20.1158 116.692 20.8722 116.692 21.6889V23.5533C116.692 24.647 116.884 25.5774 117.268 26.3445C117.658 27.1115 118.202 27.6974 118.898 28.1023C119.594 28.5 120.407 28.6989 121.337 28.6989C121.941 28.6989 122.491 28.6136 122.988 28.4432C123.486 28.2656 123.915 28.0028 124.278 27.6548C124.64 27.3068 124.917 26.8771 125.108 26.3658L128.123 26.9091C127.882 27.7969 127.449 28.5746 126.824 29.2422C126.206 29.9027 125.428 30.4176 124.491 30.7869C123.56 31.1491 122.498 31.3303 121.305 31.3303ZM131.86 31V14.6364H134.939V17.2358H135.109C135.408 16.3551 135.933 15.6626 136.686 15.1584C137.446 14.647 138.305 14.3913 139.264 14.3913C139.463 14.3913 139.697 14.3984 139.967 14.4126C140.244 14.4268 140.461 14.4446 140.617 14.4659V17.5128C140.489 17.4773 140.262 17.4382 139.935 17.3956C139.609 17.3459 139.282 17.321 138.955 17.321C138.202 17.321 137.531 17.4808 136.942 17.8004C136.359 18.1129 135.898 18.5497 135.557 19.1108C135.216 19.6648 135.045 20.2969 135.045 21.0071V31H131.86ZM158.395 16.0746C158.189 15.4283 157.912 14.8494 157.564 14.3381C157.223 13.8196 156.815 13.3793 156.339 13.017C155.863 12.6477 155.32 12.3672 154.709 12.1754C154.105 11.9837 153.441 11.8878 152.717 11.8878C151.488 11.8878 150.38 12.2038 149.393 12.8359C148.406 13.468 147.624 14.3949 147.049 15.6165C146.481 16.831 146.197 18.3189 146.197 20.0803C146.197 21.8487 146.485 23.3437 147.06 24.5653C147.635 25.7869 148.423 26.7138 149.425 27.3459C150.426 27.978 151.566 28.294 152.845 28.294C154.031 28.294 155.064 28.0526 155.945 27.5696C156.833 27.0866 157.518 26.4048 158.001 25.5241C158.491 24.6364 158.736 23.5923 158.736 22.392L159.588 22.5518H153.345V19.8352H161.921V22.3175C161.921 24.1499 161.531 25.7408 160.749 27.0902C159.975 28.4325 158.903 29.4695 157.532 30.201C156.169 30.9325 154.606 31.2983 152.845 31.2983C150.87 31.2983 149.137 30.8438 147.646 29.9347C146.161 29.0256 145.004 27.7365 144.173 26.0675C143.342 24.3913 142.926 22.4027 142.926 20.1016C142.926 18.3615 143.168 16.799 143.651 15.4141C144.134 14.0291 144.812 12.8537 145.686 11.8878C146.566 10.9148 147.6 10.1726 148.786 9.66122C149.979 9.14276 151.282 8.88352 152.695 8.88352C153.874 8.88352 154.972 9.05753 155.987 9.40554C157.01 9.75355 157.919 10.2472 158.715 10.8864C159.517 11.5256 160.181 12.2855 160.707 13.1662C161.232 14.0398 161.588 15.0092 161.772 16.0746H158.395ZM165.844 31V14.6364H168.923V17.2358H169.094C169.392 16.3551 169.918 15.6626 170.67 15.1584C171.43 14.647 172.29 14.3913 173.249 14.3913C173.447 14.3913 173.682 14.3984 173.952 14.4126C174.229 14.4268 174.445 14.4446 174.602 14.4659V17.5128C174.474 17.4773 174.246 17.4382 173.92 17.3956C173.593 17.3459 173.266 17.321 172.94 17.321C172.187 17.321 171.516 17.4808 170.926 17.8004C170.344 18.1129 169.882 18.5497 169.541 19.1108C169.2 19.6648 169.03 20.2969 169.03 21.0071V31H165.844ZM181.974 31.3622C180.937 31.3622 179.999 31.1705 179.161 30.7869C178.323 30.3963 177.659 29.8317 177.169 29.093C176.686 28.3544 176.445 27.4489 176.445 26.3764C176.445 25.4531 176.622 24.6932 176.977 24.0966C177.332 23.5 177.812 23.0277 178.415 22.6797C179.019 22.3317 179.694 22.0689 180.44 21.8913C181.185 21.7138 181.945 21.5788 182.719 21.4865C183.7 21.3729 184.495 21.2805 185.106 21.2095C185.717 21.1314 186.161 21.0071 186.438 20.8366C186.714 20.6662 186.853 20.3892 186.853 20.0057V19.9311C186.853 19.0007 186.59 18.2798 186.065 17.7685C185.546 17.2571 184.772 17.0014 183.742 17.0014C182.67 17.0014 181.825 17.2393 181.207 17.7152C180.596 18.1839 180.173 18.706 179.939 19.2812L176.945 18.5994C177.3 17.6051 177.819 16.8026 178.501 16.1918C179.19 15.5739 179.982 15.1264 180.876 14.8494C181.771 14.5653 182.712 14.4233 183.7 14.4233C184.353 14.4233 185.045 14.5014 185.777 14.6577C186.516 14.8068 187.205 15.0838 187.844 15.4886C188.49 15.8935 189.019 16.4723 189.431 17.2251C189.843 17.9709 190.049 18.9403 190.049 20.1335V31H186.938V28.7628H186.81C186.604 29.1747 186.295 29.5795 185.884 29.9773C185.472 30.375 184.942 30.7053 184.296 30.968C183.65 31.2308 182.876 31.3622 181.974 31.3622ZM182.666 28.8054C183.547 28.8054 184.3 28.6314 184.925 28.2834C185.557 27.9354 186.036 27.4808 186.363 26.9197C186.697 26.3516 186.864 25.7443 186.864 25.098V22.9886C186.75 23.1023 186.53 23.2088 186.203 23.3082C185.884 23.4006 185.518 23.4822 185.106 23.5533C184.694 23.6172 184.293 23.6776 183.902 23.7344C183.511 23.7841 183.185 23.8267 182.922 23.8622C182.304 23.9403 181.739 24.0717 181.228 24.2564C180.724 24.4411 180.319 24.7074 180.013 25.0554C179.715 25.3963 179.566 25.8509 179.566 26.419C179.566 27.2074 179.857 27.804 180.44 28.2088C181.022 28.6065 181.764 28.8054 182.666 28.8054ZM194.292 31V14.6364H197.349V17.2997H197.552C197.893 16.3977 198.45 15.6946 199.224 15.1903C199.998 14.679 200.925 14.4233 202.005 14.4233C203.099 14.4233 204.015 14.679 204.753 15.1903C205.499 15.7017 206.05 16.4048 206.405 17.2997H206.575C206.966 16.4261 207.587 15.7301 208.439 15.2116C209.292 14.6861 210.307 14.4233 211.486 14.4233C212.971 14.4233 214.182 14.8885 215.119 15.8189C216.064 16.7493 216.536 18.152 216.536 20.027V31H213.351V20.3253C213.351 19.2173 213.049 18.4148 212.445 17.9176C211.841 17.4205 211.121 17.1719 210.282 17.1719C209.246 17.1719 208.439 17.4915 207.864 18.1307C207.289 18.7628 207.001 19.576 207.001 20.5703V31H203.827V20.1229C203.827 19.2351 203.55 18.5213 202.996 17.9815C202.442 17.4418 201.721 17.1719 200.833 17.1719C200.229 17.1719 199.672 17.3317 199.16 17.6513C198.656 17.9638 198.248 18.4006 197.935 18.9616C197.63 19.5227 197.477 20.1726 197.477 20.9112V31H194.292Z" fill="black"/>
<path d="M28.2352 4.76611L0 21.2971V11.4025L19.8672 0L28.2352 4.76611Z" fill="#655CFE"/>
<path d="M24.4424 19.3062L15.9538 14.4797L0 23.6504V33.4242L24.4424 19.3062Z" fill="#655CFE"/>
<path d="M9.45197 30.5881V40L1.1438 35.2942L9.45197 30.5881Z" fill="#FF83D5"/>
</svg>
