<svg width="27" height="27" viewBox="0 0 27 27" fill="none" xmlns="http://www.w3.org/2000/svg">
<path d="M25.089 0.330078H2.36661C1.32544 0.330078 0.479492 1.18786 0.479492 2.24086V24.9218C0.479492 25.9748 1.32544 26.8326 2.36661 26.8326H25.089C26.1301 26.8326 26.982 25.9748 26.982 24.9218V2.24086C26.982 1.18786 26.1301 0.330078 25.089 0.330078ZM8.4894 23.0465H4.56135V10.3987H8.49532V23.0465H8.4894ZM6.52538 8.67127C5.26532 8.67127 4.24782 7.64785 4.24782 6.39371C4.24782 5.13957 5.26532 4.11615 6.52538 4.11615C7.77951 4.11615 8.80294 5.13957 8.80294 6.39371C8.80294 7.65376 7.78543 8.67127 6.52538 8.67127ZM23.2137 23.0465H19.2856V16.8941C19.2856 15.427 19.256 13.5399 17.2447 13.5399C15.1978 13.5399 14.8843 15.1372 14.8843 16.7877V23.0465H10.9563V10.3987H14.7246V12.1261H14.7778C15.3043 11.1322 16.588 10.0851 18.4988 10.0851C22.4742 10.0851 23.2137 12.7058 23.2137 16.1133V23.0465Z" fill="white"/>
</svg>
