<svg width="31" height="25" viewBox="0 0 31 25" fill="none" xmlns="http://www.w3.org/2000/svg">
<path d="M27.1751 6.41196C27.1944 6.68101 27.1944 6.95012 27.1944 7.21917C27.1944 15.4255 20.9483 24.8811 9.53244 24.8811C6.01542 24.8811 2.74827 23.8624 0 22.0944C0.499702 22.152 0.980119 22.1713 1.49905 22.1713C4.40101 22.1713 7.07244 21.1911 9.20572 19.5191C6.47667 19.4614 4.18964 17.6741 3.40167 15.2141C3.78607 15.2717 4.17042 15.3102 4.57405 15.3102C5.13137 15.3102 5.68875 15.2333 6.20762 15.0988C3.36327 14.5222 1.22994 12.0238 1.22994 9.00649V8.92964C2.05631 9.39089 3.01732 9.67917 4.03583 9.71756C2.36381 8.60286 1.26839 6.70024 1.26839 4.54774C1.26839 3.39464 1.57583 2.33762 2.11399 1.41512C5.16976 5.18197 9.76304 7.64191 14.9136 7.91101C14.8175 7.44976 14.7598 6.96935 14.7598 6.48887C14.7598 3.06792 17.5273 0.28125 20.9674 0.28125C22.7548 0.28125 24.3691 1.03077 25.503 2.24155C26.906 1.9725 28.2513 1.45357 29.4429 0.7425C28.9816 2.18393 28.0014 3.3947 26.7138 4.16339C27.963 4.02893 29.1738 3.68292 30.2885 3.2025C29.443 4.43244 28.3859 5.52786 27.1751 6.41197V6.41196Z" fill="white"/>
</svg>
