<svg width="34" height="23" viewBox="0 0 34 23" fill="none" xmlns="http://www.w3.org/2000/svg">
<path d="M32.54 3.77701C32.1684 2.37794 31.0736 1.27607 29.6836 0.902138C27.1641 0.222656 17.0612 0.222656 17.0612 0.222656C17.0612 0.222656 6.95826 0.222656 4.43869 0.902138C3.04866 1.27613 1.9539 2.37794 1.58233 3.77701C0.907227 6.31291 0.907227 11.6038 0.907227 11.6038C0.907227 11.6038 0.907227 16.8947 1.58233 19.4306C1.9539 20.8297 3.04866 21.8857 4.43869 22.2596C6.95826 22.9391 17.0612 22.9391 17.0612 22.9391C17.0612 22.9391 27.1641 22.9391 29.6836 22.2596C31.0736 21.8857 32.1684 20.8297 32.54 19.4306C33.2151 16.8947 33.2151 11.6038 33.2151 11.6038C33.2151 11.6038 33.2151 6.31291 32.54 3.77701V3.77701ZM13.7569 16.4076V6.80007L22.201 11.6039L13.7569 16.4076V16.4076Z" fill="white"/>
</svg>
